<svg xmlns="http://www.w3.org/2000/svg" viewBox="0 0 60 60" enable-background="new 0 0 60 60"><g fill="#33352A"><rect x="29" y="5.1" width="2" height="5.7"/><rect x="40" y="8" transform="matrix(.867 .498 -.498 .867 10.862 -18.959)" width="2" height="5.7"/><polygon points="47,21.2 46,19.4 50.9,16.6 51.9,18.3"/><rect x="49.1" y="28.9" width="5.7" height="2"/><polygon points="50.9,43.1 46,40.3 47,38.5 51.9,41.4"/><rect x="38.1" y="47.8" transform="matrix(.5 .866 -.866 .5 62.736 -11.067)" width="5.7" height="2"/><rect x="29" y="48.9" width="2" height="5.7"/><rect x="18" y="46" transform="matrix(.867 .499 -.499 .867 26.915 -2.986)" width="2" height="5.7"/><polygon points="9.1,43.1 8.1,41.4 13,38.5 14,40.3"/><rect x="5.2" y="28.9" width="5.7" height="2"/><polygon points="13,21.2 8.1,18.3 9.1,16.6 14,19.4"/><rect x="16.2" y="9.9" transform="matrix(.5 .866 -.866 .5 18.949 -11.054)" width="5.7" height="2"/><path d="M30 59.5c-16.4 0-29.7-13.3-29.7-29.7 0-16.3 13.3-29.6 29.7-29.6s29.7 13.3 29.7 29.7c0 16.3-13.3 29.6-29.7 29.6zm0-56.6c-14.9 0-27 12.1-27 27s12.1 27 27 27 27-12.1 27-27-12.1-27-27-27z"/><rect x="32.1" y="5.2" transform="matrix(.994 .106 -.106 .994 .834 -3.397)" width=".8" height="1.9"/><rect x="34.5" y="5.6" transform="matrix(.978 .208 -.208 .978 2.13 -7.122)" width=".8" height="1.9"/><rect x="36.9" y="6.3" transform="matrix(.952 .307 -.307 .952 4.015 -11.114)" width=".8" height="1.9"/><polygon points="39.7,9.1 38.9,8.8 39.7,7.1 40.4,7.4"/><polygon points="43.8,11.6 43.1,11.1 44.2,9.6 44.9,10.1"/><rect x="45.5" y="11.2" transform="matrix(.744 .668 -.668 .744 19.904 -27.588)" width=".8" height="1.9"/><polygon points="47.3,14.9 46.7,14.3 48.1,13 48.7,13.6"/><rect x="48.9" y="14.9" transform="matrix(.591 .807 -.807 .591 32.966 -33.259)" width=".8" height="1.9"/><rect x="51.3" y="19.2" transform="matrix(.406 .914 -.914 .406 49.169 -35.309)" width=".8" height="1.9"/><rect x="52.2" y="21.6" transform="matrix(.309 .951 -.951 .309 57.752 -34.52)" width=".8" height="1.9"/><polygon points="52.4,25.5 52.3,24.7 54.1,24.3 54.3,25.1"/><rect x="53.3" y="26.4" transform="matrix(.101 .995 -.995 .101 75.5 -28.794)" width=".8" height="1.9"/><rect x="52.7" y="31.9" transform="matrix(.995 .104 -.104 .995 3.666 -5.422)" width="1.9" height=".8"/><rect x="52.3" y="34.4" transform="matrix(.978 .21 -.21 .978 8.48 -10.398)" width="1.9" height=".8"/><rect x="51.7" y="36.8" transform="matrix(.952 .307 -.307 .952 13.99 -14.383)" width="1.9" height=".8"/><polygon points="52.4,40.3 50.7,39.5 51.1,38.8 52.8,39.6"/><polygon points="49.8,44.7 48.3,43.6 48.7,43 50.3,44.1"/><rect x="46.7" y="45.4" transform="matrix(.744 .668 -.668 .744 42.794 -20.146)" width="1.9" height=".8"/><rect x="45" y="47.1" transform="matrix(.669 .743 -.743 .669 50.495 -18.405)" width="1.9" height=".8"/><rect x="43" y="48.7" transform="matrix(.587 .81 -.81 .587 57.972 -15.326)" width="1.9" height=".8"/><rect x="38.7" y="51.2" transform="matrix(.406 .914 -.914 .406 70.699 -5.632)" width="1.9" height=".8"/><polygon points="37.3,53.5 36.7,51.7 37.5,51.5 38,53.3"/><rect x="34" y="52.7" transform="matrix(.208 .978 -.978 .208 79.644 7.882)" width="1.9" height=".8"/><rect x="31.5" y="53.1" transform="matrix(.102 .995 -.995 .102 82.436 15.763)" width="1.9" height=".8"/><polygon points="27.8,54.5 27,54.4 27.2,52.5 28,52.6"/><rect x="24.6" y="52.2" transform="matrix(.978 .21 -.21 .978 11.701 -4.072)" width=".8" height="1.9"/><polygon points="22.7,53.5 22,53.3 22.5,51.5 23.3,51.7"/><polygon points="20.3,52.6 19.6,52.3 20.3,50.6 21.1,50.9"/><rect x="15.6" y="48.2" transform="matrix(.81 .586 -.586 .81 31.835 -.061)" width=".8" height="1.9"/><rect x="13.7" y="46.6" transform="matrix(.743 .67 -.67 .743 35.463 2.813)" width=".8" height="1.9"/><rect x="11.9" y="44.8" transform="matrix(.67 .742 -.742 .67 38.041 5.963)" width=".8" height="1.9"/><rect x="10.3" y="42.9" transform="matrix(.587 .81 -.81 .587 39.947 9.423)" width=".8" height="1.9"/><rect x="7.8" y="38.6" transform="matrix(.405 .914 -.914 .405 41.064 15.98)" width=".8" height="1.9"/><rect x="7" y="36.3" transform="matrix(.308 .951 -.951 .308 40.495 18.747)" width=".8" height="1.9"/><rect x="6.3" y="33.9" transform="matrix(.21 .978 -.978 .21 39.337 20.932)" width=".8" height="1.9"/><rect x="5.9" y="31.4" transform="matrix(.103 .995 -.995 .103 37.848 22.724)" width=".8" height="1.9"/><rect x="5.4" y="27" transform="matrix(.995 .103 -.103 .995 2.846 -.505)" width="1.9" height=".8"/><polygon points="7.6,25.5 5.7,25.1 5.9,24.3 7.7,24.7"/><polygon points="8.1,23.2 6.3,22.6 6.6,21.8 8.4,22.4"/><rect x="7.3" y="19.8" transform="matrix(.913 .409 -.409 .913 8.969 -1.609)" width="1.9" height=".8"/><polygon points="11.3,16.7 9.7,15.6 10.2,15 11.7,16.1"/><polygon points="12.7,14.9 11.3,13.6 11.9,13 13.3,14.3"/><rect x="13.1" y="11.8" transform="matrix(.669 .743 -.743 .669 13.703 -6.433)" width="1.9" height=".8"/><polygon points="16.2,11.6 15.1,10.1 15.8,9.6 16.9,11.1"/><rect x="19.4" y="7.7" transform="matrix(.406 .914 -.914 .406 19.469 -13.752)" width="1.9" height=".8"/><polygon points="22.5,8.2 22,6.4 22.7,6.2 23.3,8"/><rect x="24.1" y="6.2" transform="matrix(.207 .978 -.978 .207 26.29 -19.3)" width="1.9" height=".8"/><rect x="26.6" y="5.8" transform="matrix(.104 .995 -.995 .104 30.783 -21.829)" width="1.9" height=".8"/></g></svg>