<?xml version="1.0" encoding="utf-8"?>
<!-- Generator: Adobe Illustrator 17.1.0, SVG Export Plug-In . SVG Version: 6.00 Build 0)  -->
<!DOCTYPE svg PUBLIC "-//W3C//DTD SVG 1.1//EN" "http://www.w3.org/Graphics/SVG/1.1/DTD/svg11.dtd">
<svg version="1.1" id="Layer_1" xmlns="http://www.w3.org/2000/svg" xmlns:xlink="http://www.w3.org/1999/xlink" x="0px" y="0px"
	 viewBox="0 0 60 60" enable-background="new 0 0 60 60" xml:space="preserve">
<g>
	<rect x="29" y="5.1" fill="#33352A" width="2" height="5.7"/>
	<rect x="40" y="8" transform="matrix(0.8671 0.4982 -0.4982 0.8671 10.862 -18.9593)" fill="#33352A" width="2" height="5.7"/>
	<polygon fill="#33352A" points="47,21.2 46,19.4 50.9,16.6 51.9,18.3 	"/>
	<rect x="49.1" y="28.9" fill="#33352A" width="5.7" height="2"/>
	<polygon fill="#33352A" points="50.9,43.1 46,40.3 47,38.5 51.9,41.4 	"/>
	
		<rect x="38.1" y="47.8" transform="matrix(0.5005 0.8657 -0.8657 0.5005 62.7365 -11.0667)" fill="#33352A" width="5.7" height="2"/>
	<rect x="29" y="48.9" fill="#33352A" width="2" height="5.7"/>
	<rect x="18" y="46" transform="matrix(0.8665 0.4991 -0.4991 0.8665 26.915 -2.9865)" fill="#33352A" width="2" height="5.7"/>
	<polygon fill="#33352A" points="9.1,43.1 8.1,41.4 13,38.5 14,40.3 	"/>
	<rect x="5.2" y="28.9" fill="#33352A" width="5.7" height="2"/>
	<polygon fill="#33352A" points="13,21.2 8.1,18.3 9.1,16.6 14,19.4 	"/>
	<rect x="16.2" y="9.9" transform="matrix(0.4996 0.8663 -0.8663 0.4996 18.949 -11.0536)" fill="#33352A" width="5.7" height="2"/>
	<path fill="#33352A" d="M30,59.5c-16.4,0-29.7-13.3-29.7-29.7C0.3,13.5,13.6,0.2,30,0.2c16.4,0,29.7,13.3,29.7,29.7
		C59.7,46.2,46.4,59.5,30,59.5z M30,2.9C15.1,2.9,3,15,3,29.9c0,14.9,12.1,27,27,27c14.9,0,27-12.1,27-27C57,15,44.9,2.9,30,2.9z"/>
	
		<rect x="32.1" y="5.2" transform="matrix(0.9944 0.1056 -0.1056 0.9944 0.8342 -3.3968)" fill="#33352A" width="0.8" height="1.9"/>
	
		<rect x="34.5" y="5.6" transform="matrix(0.9781 0.2079 -0.2079 0.9781 2.1295 -7.1223)" fill="#33352A" width="0.8" height="1.9"/>
	
		<rect x="36.9" y="6.3" transform="matrix(0.9518 0.3068 -0.3068 0.9518 4.0146 -11.1138)" fill="#33352A" width="0.8" height="1.9"/>
	<polygon fill="#33352A" points="39.7,9.1 38.9,8.8 39.7,7.1 40.4,7.4 	"/>
	<polygon fill="#33352A" points="43.8,11.6 43.1,11.1 44.2,9.6 44.9,10.1 	"/>
	
		<rect x="45.5" y="11.2" transform="matrix(0.7437 0.6685 -0.6685 0.7437 19.9042 -27.5882)" fill="#33352A" width="0.8" height="1.9"/>
	<polygon fill="#33352A" points="47.3,14.9 46.7,14.3 48.1,13 48.7,13.6 	"/>
	
		<rect x="48.9" y="14.9" transform="matrix(0.5906 0.807 -0.807 0.5906 32.9656 -33.2589)" fill="#33352A" width="0.8" height="1.9"/>
	
		<rect x="51.3" y="19.2" transform="matrix(0.406 0.9139 -0.9139 0.406 49.1687 -35.309)" fill="#33352A" width="0.8" height="1.9"/>
	
		<rect x="52.2" y="21.6" transform="matrix(0.3093 0.951 -0.951 0.3093 57.7515 -34.5205)" fill="#33352A" width="0.8" height="1.9"/>
	<polygon fill="#33352A" points="52.4,25.5 52.3,24.7 54.1,24.3 54.3,25.1 	"/>
	
		<rect x="53.3" y="26.4" transform="matrix(0.1006 0.9949 -0.9949 0.1006 75.4998 -28.7935)" fill="#33352A" width="0.8" height="1.9"/>
	
		<rect x="52.7" y="31.9" transform="matrix(0.9945 0.1043 -0.1043 0.9945 3.666 -5.4223)" fill="#33352A" width="1.9" height="0.8"/>
	
		<rect x="52.3" y="34.4" transform="matrix(0.9778 0.2096 -0.2096 0.9778 8.4803 -10.3977)" fill="#33352A" width="1.9" height="0.8"/>
	
		<rect x="51.7" y="36.8" transform="matrix(0.9516 0.3074 -0.3074 0.9516 13.9898 -14.3826)" fill="#33352A" width="1.9" height="0.8"/>
	<polygon fill="#33352A" points="52.4,40.3 50.7,39.5 51.1,38.8 52.8,39.6 	"/>
	<polygon fill="#33352A" points="49.8,44.7 48.3,43.6 48.7,43 50.3,44.1 	"/>
	
		<rect x="46.7" y="45.4" transform="matrix(0.7441 0.6681 -0.6681 0.7441 42.7945 -20.1463)" fill="#33352A" width="1.9" height="0.8"/>
	
		<rect x="45" y="47.1" transform="matrix(0.6695 0.7428 -0.7428 0.6695 50.4946 -18.4054)" fill="#33352A" width="1.9" height="0.8"/>
	<rect x="43" y="48.7" transform="matrix(0.5865 0.81 -0.81 0.5865 57.9725 -15.326)" fill="#33352A" width="1.9" height="0.8"/>
	
		<rect x="38.7" y="51.2" transform="matrix(0.4065 0.9137 -0.9137 0.4065 70.699 -5.6323)" fill="#33352A" width="1.9" height="0.8"/>
	<polygon fill="#33352A" points="37.3,53.5 36.7,51.7 37.5,51.5 38,53.3 	"/>
	<rect x="34" y="52.7" transform="matrix(0.2084 0.978 -0.978 0.2084 79.6437 7.8817)" fill="#33352A" width="1.9" height="0.8"/>
	
		<rect x="31.5" y="53.1" transform="matrix(0.1017 0.9948 -0.9948 0.1017 82.4362 15.7626)" fill="#33352A" width="1.9" height="0.8"/>
	<polygon fill="#33352A" points="27.8,54.5 27,54.4 27.2,52.5 28,52.6 	"/>
	
		<rect x="24.6" y="52.2" transform="matrix(0.9778 0.2097 -0.2097 0.9778 11.7013 -4.0725)" fill="#33352A" width="0.8" height="1.9"/>
	<polygon fill="#33352A" points="22.7,53.5 22,53.3 22.5,51.5 23.3,51.7 	"/>
	<polygon fill="#33352A" points="20.3,52.6 19.6,52.3 20.3,50.6 21.1,50.9 	"/>
	
		<rect x="15.6" y="48.2" transform="matrix(0.8101 0.5863 -0.5863 0.8101 31.8352 -6.067070e-02)" fill="#33352A" width="0.8" height="1.9"/>
	
		<rect x="13.7" y="46.6" transform="matrix(0.7426 0.6697 -0.6697 0.7426 35.4631 2.8131)" fill="#33352A" width="0.8" height="1.9"/>
	
		<rect x="11.9" y="44.8" transform="matrix(0.6702 0.7422 -0.7422 0.6702 38.0406 5.9628)" fill="#33352A" width="0.8" height="1.9"/>
	
		<rect x="10.3" y="42.9" transform="matrix(0.5867 0.8098 -0.8098 0.5867 39.9473 9.4226)" fill="#33352A" width="0.8" height="1.9"/>
	
		<rect x="7.8" y="38.6" transform="matrix(0.4049 0.9143 -0.9143 0.4049 41.0638 15.9804)" fill="#33352A" width="0.8" height="1.9"/>
	<rect x="7" y="36.3" transform="matrix(0.3081 0.9514 -0.9514 0.3081 40.4954 18.747)" fill="#33352A" width="0.8" height="1.9"/>
	
		<rect x="6.3" y="33.9" transform="matrix(0.2099 0.9777 -0.9777 0.2099 39.3371 20.9318)" fill="#33352A" width="0.8" height="1.9"/>
	<rect x="5.9" y="31.4" transform="matrix(0.103 0.9947 -0.9947 0.103 37.8481 22.7236)" fill="#33352A" width="0.8" height="1.9"/>
	<rect x="5.4" y="27" transform="matrix(0.9947 0.1028 -0.1028 0.9947 2.846 -0.5052)" fill="#33352A" width="1.9" height="0.8"/>
	<polygon fill="#33352A" points="7.6,25.5 5.7,25.1 5.9,24.3 7.7,24.7 	"/>
	<polygon fill="#33352A" points="8.1,23.2 6.3,22.6 6.6,21.8 8.4,22.4 	"/>
	
		<rect x="7.3" y="19.8" transform="matrix(0.9126 0.4088 -0.4088 0.9126 8.9691 -1.6094)" fill="#33352A" width="1.9" height="0.8"/>
	<polygon fill="#33352A" points="11.3,16.7 9.7,15.6 10.2,15 11.7,16.1 	"/>
	<polygon fill="#33352A" points="12.7,14.9 11.3,13.6 11.9,13 13.3,14.3 	"/>
	
		<rect x="13.1" y="11.8" transform="matrix(0.6688 0.7434 -0.7434 0.6688 13.7029 -6.4327)" fill="#33352A" width="1.9" height="0.8"/>
	<polygon fill="#33352A" points="16.2,11.6 15.1,10.1 15.8,9.6 16.9,11.1 	"/>
	
		<rect x="19.4" y="7.7" transform="matrix(0.4063 0.9138 -0.9138 0.4063 19.4693 -13.7523)" fill="#33352A" width="1.9" height="0.8"/>
	<polygon fill="#33352A" points="22.5,8.2 22,6.4 22.7,6.2 23.3,8 	"/>
	
		<rect x="24.1" y="6.2" transform="matrix(0.207 0.9783 -0.9783 0.207 26.2903 -19.3002)" fill="#33352A" width="1.9" height="0.8"/>
	
		<rect x="26.6" y="5.8" transform="matrix(0.1043 0.9945 -0.9945 0.1043 30.7834 -21.8288)" fill="#33352A" width="1.9" height="0.8"/>
</g>
</svg>
